<?xml version="1.0" standalone="no"?>
<!DOCTYPE svg PUBLIC "-//W3C//DTD SVG 20010904//EN"
 "http://www.w3.org/TR/2001/REC-SVG-20010904/DTD/svg10.dtd">
<svg version="1.0" xmlns="http://www.w3.org/2000/svg"
 width="16.000000pt" height="16.000000pt" viewBox="0 0 16.000000 16.000000"
 preserveAspectRatio="xMidYMid meet">
<metadata>
Created by potrace 1.11, written by Peter Selinger 2001-2013
</metadata>
<g transform="translate(0.000000,16.000000) scale(0.006250,-0.006250)"
fill="#000000" stroke="none">
<path d="M1125 2529 c-72 -24 -198 -93 -244 -135 -70 -63 -93 -98 -93 -142 0
-20 1 -109 2 -197 1 -102 -2 -161 -8 -163 -6 -2 -23 3 -39 11 -38 19 -64 14
-158 -33 -89 -45 -108 -59 -148 -111 l-28 -37 3 -201 c2 -111 2 -201 0 -201
-1 0 -42 16 -90 35 -63 26 -96 34 -119 30 -44 -8 -120 -52 -163 -95 l-35 -35
2 -205 c6 -508 10 -730 14 -733 22 -15 783 -307 799 -307 6 0 9 5 8 11 -2 6
11 19 27 28 26 16 38 31 65 91 4 8 18 20 31 27 33 17 59 51 52 68 -3 8 -3 15
-1 15 5 0 76 -27 301 -114 109 -42 200 -76 203 -76 2 0 4 11 4 24 0 18 7 26
28 31 40 10 71 43 78 84 8 46 28 68 74 82 34 10 52 5 276 -81 131 -51 245 -94
252 -97 8 -3 12 5 12 25 0 26 6 31 45 46 51 20 95 67 95 102 0 54 43 103 103
118 15 3 27 13 27 21 0 8 10 21 23 30 21 13 23 21 21 97 -1 46 -5 234 -8 418
-10 584 -18 964 -19 1005 l-2 40 -665 267 c-366 147 -672 267 -680 267 -8 0
-28 -5 -45 -10z"/>
</g>
</svg>
